<?xml version="1.0" encoding="UTF-8"?>
<svg width="800" height="600" viewBox="0 0 800 600" fill="none" xmlns="http://www.w3.org/2000/svg">
  <rect width="800" height="600" fill="#F9FAFB" />
  
  <!-- Business Meeting/Collaboration Illustration -->
  <rect x="150" y="150" width="500" height="300" rx="20" fill="#EEF2FF" />
  
  <!-- People -->
  <circle cx="250" cy="250" r="40" fill="#4F46E5" opacity="0.8" />
  <circle cx="400" cy="250" r="40" fill="#4F46E5" opacity="0.8" />
  <circle cx="550" cy="250" r="40" fill="#4F46E5" opacity="0.8" />
  
  <!-- Person Icons -->
  <path d="M250 230C258 230 265 238 265 245C265 252 258 260 250 260C242 260 235 252 235 245C235 238 242 230 250 230Z" fill="white" />
  <path d="M250 265C235 265 220 275 220 290H280C280 275 265 265 250 265Z" fill="white" />
  
  <path d="M400 230C408 230 415 238 415 245C415 252 408 260 400 260C392 260 385 252 385 245C385 238 392 230 400 230Z" fill="white" />
  <path d="M400 265C385 265 370 275 370 290H430C430 275 415 265 400 265Z" fill="white" />
  
  <path d="M550 230C558 230 565 238 565 245C565 252 558 260 550 260C542 260 535 252 535 245C535 238 542 230 550 230Z" fill="white" />
  <path d="M550 265C535 265 520 275 520 290H580C580 275 565 265 550 265Z" fill="white" />
  
  <!-- Connection Lines -->
  <line x1="290" y1="250" x2="360" y2="250" stroke="white" stroke-width="3" />
  <line x1="440" y1="250" x2="510" y2="250" stroke="white" stroke-width="3" />
  
  <!-- Charts/Graphics -->
  <rect x="200" y="350" width="100" height="60" rx="5" fill="#C7D2FE" />
  <rect x="350" y="350" width="100" height="60" rx="5" fill="#C7D2FE" />
  <rect x="500" y="350" width="100" height="60" rx="5" fill="#C7D2FE" />
  
  <!-- Chart Lines -->
  <line x1="210" y1="390" x2="230" y2="370" stroke="#4F46E5" stroke-width="2" />
  <line x1="230" y1="370" x2="250" y2="380" stroke="#4F46E5" stroke-width="2" />
  <line x1="250" y1="380" x2="270" y2="360" stroke="#4F46E5" stroke-width="2" />
  <line x1="270" y1="360" x2="290" y2="385" stroke="#4F46E5" stroke-width="2" />
  
  <path d="M400 370A20 20 0 0 1 380 390A20 20 0 0 1 360 370A20 20 0 0 1 380 350A20 20 0 0 1 400 370Z" fill="#4F46E5" />
  <path d="M400 370A15 15 0 0 1 385 385A15 15 0 0 1 370 370A15 15 0 0 1 385 355A15 15 0 0 1 400 370Z" fill="white" />
  
  <rect x="510" y1="360" width="80" height="10" fill="#4F46E5" />
  <rect x="510" y1="375" width="60" height="10" fill="#4F46E5" />
  <rect x="510" y1="390" width="40" height="10" fill="#4F46E5" />
</svg>
