<?xml version="1.0" encoding="UTF-8"?>
<svg width="300px" height="200px" viewBox="0 0 300 200" version="1.1" xmlns="http://www.w3.org/2000/svg" xmlns:xlink="http://www.w3.org/1999/xlink">
    <!-- AI Development Service Icon -->
    <defs>
        <linearGradient x1="50%" y1="0%" x2="50%" y2="100%" id="aiGradient">
            <stop stop-color="#F0F4FF" offset="0%"></stop>
            <stop stop-color="#E6EEFF" offset="100%"></stop>
        </linearGradient>
        <linearGradient x1="50%" y1="0%" x2="50%" y2="100%" id="circleGradient">
            <stop stop-color="#6366F1" offset="0%"></stop>
            <stop stop-color="#4F46E5" offset="100%"></stop>
        </linearGradient>
    </defs>
    
    <!-- Background -->
    <rect fill="url(#aiGradient)" x="0" y="0" width="300" height="200" rx="8"></rect>
    
    <!-- Brain visualization -->
    <g transform="translate(115, 60)">
        <!-- Central brain circle -->
        <circle fill="url(#circleGradient)" cx="35" cy="35" r="30"></circle>
        
        <!-- Brain connections -->
        <circle fill="#8B5CF6" cx="15" cy="15" r="8"></circle>
        <line x1="20" y1="20" x2="30" y2="30" stroke="#8B5CF6" stroke-width="2"></line>
        
        <circle fill="#8B5CF6" cx="70" cy="15" r="8"></circle>
        <line x1="65" y1="20" x2="55" y2="30" stroke="#8B5CF6" stroke-width="2"></line>
        
        <circle fill="#8B5CF6" cx="15" cy="60" r="8"></circle>
        <line x1="20" y1="55" x2="30" y2="45" stroke="#8B5CF6" stroke-width="2"></line>
        
        <circle fill="#8B5CF6" cx="70" cy="60" r="8"></circle>
        <line x1="65" y1="55" x2="55" y2="45" stroke="#8B5CF6" stroke-width="2"></line>
    </g>
    
    <!-- Binary code decorations -->
    <text font-family="monospace" font-size="12" fill="#6366F1" x="20" y="40">
        01010 11001
    </text>
    <text font-family="monospace" font-size="12" fill="#6366F1" x="20" y="160">
        01101 10011
    </text>
    <text font-family="monospace" font-size="12" fill="#6366F1" x="220" y="40">
        00110 11001
    </text>
    <text font-family="monospace" font-size="12" fill="#6366F1" x="220" y="160">
        01101 10011
    </text>
    
    <!-- Gear icon for automation aspect -->
    <g transform="translate(35, 90)">
        <circle fill="white" cx="15" cy="15" r="15"></circle>
        <path d="M15,7 C15.5,7 16,7.1 16.4,7.2 L17.2,10.4 C17.8,10.6 18.3,10.9 18.8,11.3 L21.8,10.2 C22.3,10.8 22.7,11.4 23,12.1 L20.7,14.4 C20.8,14.9 20.9,15.4 20.9,16 C20.9,16.6 20.8,17.1 20.7,17.6 L23,19.9 C22.7,20.6 22.3,21.2 21.8,21.8 L18.8,20.7 C18.3,21.1 17.8,21.4 17.2,21.6 L16.4,24.8 C16,24.9 15.5,25 15,25 C14.5,25 14,24.9 13.6,24.8 L12.8,21.6 C12.2,21.4 11.7,21.1 11.2,20.7 L8.2,21.8 C7.7,21.2 7.3,20.6 7,19.9 L9.3,17.6 C9.2,17.1 9.1,16.6 9.1,16 C9.1,15.4 9.2,14.9 9.3,14.4 L7,12.1 C7.3,11.4 7.7,10.8 8.2,10.2 L11.2,11.3 C11.7,10.9 12.2,10.6 12.8,10.4 L13.6,7.2 C14,7.1 14.5,7 15,7 Z" fill="#6366F1"></path>
        <circle fill="white" cx="15" cy="15" r="5"></circle>
    </g>
</svg>
