<?xml version="1.0" encoding="UTF-8"?>
<svg width="200" height="200" viewBox="0 0 200 200" fill="none" xmlns="http://www.w3.org/2000/svg">
  <circle cx="100" cy="100" r="85" fill="#4F46E5" />
  <path d="M100 15C53.1 15 15 53.1 15 100s38.1 85 85 85 85-38.1 85-85S146.9 15 100 15zm0 160c-41.4 0-75-33.6-75-75s33.6-75 75-75 75 33.6 75 75-33.6 75-75 75z" fill="#4338CA" />
  <path d="M125 70H75c-2.8 0-5 2.2-5 5v50c0 2.8 2.2 5 5 5h50c2.8 0 5-2.2 5-5V75c0-2.8-2.2-5-5-5zm-5 50H80V80h40v40z" fill="white" />
  <path d="M150 60L130 80M150 140L130 120M50 60L70 80M50 140L70 120" stroke="white" stroke-width="5" stroke-linecap="round" />
  <path d="M60 100h10M130 100h10M100 60v10M100 130v10" stroke="white" stroke-width="5" stroke-linecap="round" />
</svg>
