<?xml version="1.0" encoding="UTF-8"?>
<svg width="300" height="200" viewBox="0 0 300 200" fill="none" xmlns="http://www.w3.org/2000/svg">
  <rect width="300" height="200" rx="10" fill="#EEF2FF" />
  
  <!-- Custom Software Development -->
  <rect x="60" y="50" width="180" height="100" rx="8" fill="#4F46E5" opacity="0.2" />
  
  <!-- Code Window Elements -->
  <rect x="70" y="60" width="160" height="80" rx="4" fill="white" />
  <rect x="70" y="60" width="160" height="20" rx="4" fill="#4F46E5" />
  
  <!-- Window Controls -->
  <circle cx="85" cy="70" r="4" fill="#EF4444" />
  <circle cx="100" cy="70" r="4" fill="#FBBF24" />
  <circle cx="115" cy="70" r="4" fill="#10B981" />
  
  <!-- Code Lines -->
  <rect x="80" y="90" width="90" height="5" rx="1" fill="#4F46E5" opacity="0.4" />
  <rect x="90" y="100" width="120" height="5" rx="1" fill="#4F46E5" opacity="0.4" />
  <rect x="100" y="110" width="80" height="5" rx="1" fill="#4F46E5" opacity="0.4" />
  <rect x="90" y="120" width="100" height="5" rx="1" fill="#4F46E5" opacity="0.4" />
  
  <!-- Mobile Device -->
  <rect x="200" y="100" width="20" height="35" rx="3" fill="#4F46E5" />
  <rect x="202" y="105" width="16" height="25" rx="1" fill="white" />
  <circle cx="210" cy="132" r="2" fill="white" />
  
  <!-- Connection Line -->
  <path d="M160 105C180 105 180 115 200 115" stroke="#4F46E5" stroke-width="2" stroke-dasharray="4 2" />
</svg>
